<?xml version="1.0" encoding="UTF-8"?>
<svg id="Layer_1" data-name="Layer 1" xmlns="http://www.w3.org/2000/svg" viewBox="0 0 400 400">
  <defs>
    <style>
      .cls-1 {
        fill: #030303;
      }
    </style>
  </defs>
  <path class="cls-1" d="m298.52,99.84c0-20.99-17.08-38.08-38.08-38.08s-38.08,17.08-38.08,38.08c0,17.87,12.38,32.9,29.02,36.98-3.73,26.12-26.25,46.27-53.38,46.27s-49.65-20.15-53.38-46.27c16.64-4.07,29.02-19.1,29.02-36.98,0-20.99-17.08-38.08-38.08-38.08s-38.08,17.08-38.08,38.08c0,18.23,12.88,33.51,30.03,37.21,3.63,32.61,29.46,58.61,61.99,62.51v63.48c-8.63,1.96-16.24,6.82-21.7,13.92-6.2,8.07-8.88,18.06-7.55,28.14,1.32,10.08,6.49,19.05,14.56,25.24,6.72,5.16,14.78,7.88,23.11,7.88,1.67,0,3.35-.11,5.03-.33,10.08-1.32,19.05-6.49,25.24-14.56,6.2-8.07,8.88-18.06,7.55-28.14-1.32-10.08-6.49-19.05-14.56-25.24-4.42-3.39-9.42-5.73-14.69-6.93v-63.46c32.53-3.9,58.36-29.9,61.99-62.51,17.14-3.7,30.03-18.98,30.03-37.21Zm-191.02,0c0-15.48,12.59-28.08,28.08-28.08s28.08,12.59,28.08,28.08-12.59,28.07-28.08,28.07-28.08-12.59-28.08-28.07Zm118.35,196.66c.98,7.44-1,14.81-5.57,20.75-4.57,5.95-11.18,9.76-18.61,10.74h0c-7.44.97-14.81-1-20.75-5.57-5.95-4.57-9.76-11.18-10.74-18.61s1-14.81,5.57-20.75c4.57-5.95,11.18-9.76,18.61-10.74,1.24-.16,2.48-.24,3.71-.24,6.14,0,12.09,2.01,17.04,5.81,5.95,4.57,9.76,11.18,10.74,18.61Zm34.6-168.58c-15.48,0-28.08-12.59-28.08-28.07s12.59-28.08,28.08-28.08,28.08,12.59,28.08,28.08-12.59,28.07-28.08,28.07Z"/>
</svg>